<svg width="215" height="217" viewBox="0 0 215 217" fill="none" xmlns="http://www.w3.org/2000/svg">
<path d="M214.5 108.5C214.5 168.153 166.776 216.5 107.92 216.5C49.0632 216.5 1.33936 168.153 1.33936 108.5C1.33936 48.847 49.0632 0.5 107.92 0.5C166.776 0.5 214.5 48.847 214.5 108.5Z" fill="white" stroke="#654A88"/>
<path d="M155.062 113.508C155.87 113.508 156.475 113.651 156.879 113.938C157.283 114.224 157.484 114.66 157.484 115.246C157.484 116.014 157.198 116.757 156.625 117.473C156.078 118.15 155.258 118.697 154.164 119.113C153.565 119.335 153.064 119.445 152.66 119.445C152.113 119.445 151.84 119.204 151.84 118.723C151.84 118.397 151.996 118.15 152.309 117.98C152.387 117.941 152.829 117.831 153.637 117.648C154.118 117.544 154.561 117.316 154.965 116.965C155.316 116.665 155.492 116.34 155.492 115.988C155.492 115.715 155.414 115.513 155.258 115.383C155.102 115.253 154.867 115.188 154.555 115.188C153.799 115.188 152.966 115.493 152.055 116.105C151 116.796 150.473 117.616 150.473 118.566C150.473 119.243 150.818 120.09 151.508 121.105C152.276 122.212 152.66 123.15 152.66 123.918C152.66 125.064 152.152 125.962 151.137 126.613C150.512 127.017 149.802 127.219 149.008 127.219C147.758 127.219 146.807 126.77 146.156 125.871C145.701 125.233 145.473 124.478 145.473 123.605C145.473 122.59 145.733 121.737 146.254 121.047C146.592 120.591 146.944 120.363 147.309 120.363C147.634 120.363 147.797 120.493 147.797 120.754C147.797 120.858 147.738 121.014 147.621 121.223C147.322 121.783 147.172 122.44 147.172 123.195C147.172 123.833 147.4 124.374 147.855 124.816C148.259 125.207 148.721 125.402 149.242 125.402C149.75 125.402 150.147 125.233 150.434 124.895C150.668 124.608 150.785 124.243 150.785 123.801C150.785 123.254 150.473 122.544 149.848 121.672C148.988 120.474 148.559 119.387 148.559 118.41C148.559 117.108 149.268 115.956 150.688 114.953C152.068 113.99 153.526 113.508 155.062 113.508ZM161.039 118.488C162.003 117.486 162.966 116.646 163.93 115.969C165.167 115.109 166.052 114.68 166.586 114.68C166.807 114.68 167.022 114.771 167.23 114.953C167.465 115.161 167.582 115.402 167.582 115.676C167.582 116.027 167.302 116.574 166.742 117.316C165.661 118.749 164.841 120.051 164.281 121.223C163.786 122.238 163.539 122.928 163.539 123.293C163.539 123.645 163.708 123.82 164.047 123.82C164.75 123.82 165.935 122.57 167.602 120.07C167.94 119.562 168.246 119.309 168.52 119.309C168.793 119.309 168.93 119.465 168.93 119.777C168.93 120.285 168.435 121.255 167.445 122.688C166.586 123.938 165.688 124.895 164.75 125.559C164.086 126.014 163.487 126.242 162.953 126.242C162.393 126.242 161.99 126.001 161.742 125.52C161.586 125.22 161.508 124.888 161.508 124.523C161.508 123.365 161.918 122.043 162.738 120.559C162.934 120.207 163.52 119.204 164.496 117.551C161.84 118.892 159.594 121.789 157.758 126.242C157.589 126.75 157.328 127.004 156.977 127.004C156.729 127.004 156.527 126.919 156.371 126.75C156.215 126.568 156.137 126.346 156.137 126.086C156.137 125.656 156.553 124.439 157.387 122.434C158.936 118.71 160.382 115.559 161.723 112.98C163.064 110.376 164.555 107.674 166.195 104.875C166.586 104.198 166.892 103.742 167.113 103.508C167.335 103.273 167.569 103.156 167.816 103.156C168.051 103.156 168.253 103.28 168.422 103.527C168.552 103.71 168.617 103.918 168.617 104.152C168.617 104.517 168.409 105.005 167.992 105.617C166.586 107.792 165.186 110.181 163.793 112.785C162.296 115.572 161.378 117.473 161.039 118.488ZM176.332 113.879C177.4 113.879 177.934 114.53 177.934 115.832C177.934 117.564 177.133 119.758 175.531 122.414C173.786 125.292 172.1 126.73 170.473 126.73C169.717 126.73 169.164 126.379 168.812 125.676C168.63 125.324 168.539 124.901 168.539 124.406C168.539 122.74 169.112 120.93 170.258 118.977C171.326 117.167 172.582 115.76 174.027 114.758C174.874 114.172 175.642 113.879 176.332 113.879ZM174.301 121.262C173.975 121.001 173.812 120.799 173.812 120.656C173.812 120.552 174.021 120.266 174.438 119.797C175.609 118.482 176.195 117.421 176.195 116.613C176.195 116.509 176.163 116.405 176.098 116.301C175.993 116.105 175.831 116.008 175.609 116.008C175.193 116.008 174.581 116.411 173.773 117.219C172.732 118.26 171.938 119.335 171.391 120.441C170.753 121.704 170.434 122.753 170.434 123.586C170.434 123.807 170.492 124.003 170.609 124.172C170.779 124.406 170.993 124.523 171.254 124.523C171.879 124.523 172.549 124.055 173.266 123.117C173.578 122.727 173.832 122.323 174.027 121.906C174.223 121.49 174.314 121.275 174.301 121.262ZM183.715 116.105C184.249 115.767 184.646 115.533 184.906 115.402C185.44 115.142 185.961 115.012 186.469 115.012C187.042 115.012 187.471 115.181 187.758 115.52C188.044 115.845 188.188 116.34 188.188 117.004C188.188 117.915 187.868 119.009 187.23 120.285C186.241 122.303 185.043 123.892 183.637 125.051C182.452 126.027 181.339 126.516 180.297 126.516C179.724 126.516 179.158 126.294 178.598 125.852C176.814 129.458 175.219 133.137 173.812 136.887C173.513 137.785 173.161 138.234 172.758 138.234C172.562 138.234 172.367 138.104 172.172 137.844C172.029 137.661 171.957 137.46 171.957 137.238C171.957 136.535 172.816 134.25 174.535 130.383C177.191 124.419 179.711 119.465 182.094 115.52C182.589 114.686 182.921 114.113 183.09 113.801C183.546 112.954 183.988 112.531 184.418 112.531C184.861 112.531 185.082 112.798 185.082 113.332C185.082 113.632 184.926 114.035 184.613 114.543C184.236 115.194 183.936 115.715 183.715 116.105ZM179.32 124.211C179.607 124.51 179.965 124.66 180.395 124.66C181.605 124.66 182.947 123.586 184.418 121.438C184.965 120.643 185.401 119.829 185.727 118.996C185.987 118.332 186.117 117.831 186.117 117.492C186.117 117.258 186.059 117.082 185.941 116.965C185.837 116.848 185.668 116.789 185.434 116.789C184.822 116.789 184.073 117.212 183.188 118.059C182.341 118.879 181.527 120.031 180.746 121.516C180.03 122.883 179.555 123.781 179.32 124.211Z" fill="#654A88"/>
<path d="M52.4938 101.344C48.2021 102.219 43.7542 103.573 39.15 105.406C38.9833 105.74 38.8167 106.083 38.65 106.438C35.775 111.958 33.8375 117.188 32.8375 122.125C32.6292 123.292 32.1604 123.875 31.4313 123.875C30.8896 123.875 30.4104 123.604 29.9938 123.062C29.6604 122.646 29.4938 122.198 29.4938 121.719C29.4938 121.135 29.7542 119.927 30.275 118.094C30.7958 116.24 31.3375 114.615 31.9 113.219C32.1083 112.698 32.7646 111.177 33.8688 108.656C34.1396 108.052 34.4104 107.417 34.6813 106.75C34.2438 106.917 33.6396 107.167 32.8688 107.5C32.5354 107.646 32.2333 107.719 31.9625 107.719C31.3167 107.719 30.9938 107.229 30.9938 106.25C30.9938 105.604 31.2646 105.115 31.8063 104.781C32.2229 104.51 32.9625 104.188 34.025 103.812C35.15 103.396 36.0354 103.052 36.6813 102.781C37.0979 102.052 37.8896 100.552 39.0563 98.2812C39.2646 97.8646 39.9625 96.6771 41.15 94.7188C44.5458 89.0104 46.7542 84.9479 47.775 82.5312C48.7125 80.3438 49.2958 79.1042 49.525 78.8125C49.9417 78.2708 50.4417 78 51.025 78C52.0042 78 52.4938 78.4792 52.4938 79.4375C52.4938 81.625 49.5146 87.5312 43.5563 97.1562C42.5771 98.7396 41.8583 100.115 41.4 101.281L42.9625 100.844C47.2125 99.6146 51.0771 98.5417 54.5563 97.625C56.9521 93.2083 59.8896 88.3125 63.3688 82.9375C63.9729 81.9792 64.3271 81.3854 64.4313 81.1562C64.9313 80.2604 65.4625 79.8125 66.025 79.8125C66.5042 79.8125 66.9 80.0104 67.2125 80.4062C67.4625 80.7396 67.5875 81.1042 67.5875 81.5C67.5875 82.25 67.1813 83.3229 66.3688 84.7188C66.1813 85.0521 65.3271 86.3854 63.8063 88.7188C61.1396 92.8438 59.4625 95.6042 58.775 97C59.3792 96.9375 59.8375 96.9062 60.15 96.9062C61.7958 96.9062 62.6188 97.3125 62.6188 98.125C62.6188 98.625 62.3583 99.1146 61.8375 99.5938C61.4417 99.9688 61.0042 100.156 60.525 100.156H59.3063C58.8063 100.156 58.0563 100.25 57.0563 100.438C52.6396 108.312 49.7542 115.219 48.4 121.156C48.0667 122.49 47.5458 123.156 46.8375 123.156C46.2958 123.156 45.7854 122.812 45.3063 122.125C44.9938 121.646 44.8375 121.135 44.8375 120.594C44.8375 118.594 47.3896 112.177 52.4938 101.344ZM95.55 95.7188C93.675 97.9271 89.7688 103.052 83.8313 111.094C81.3521 114.448 79.0292 117.271 76.8625 119.562C74.425 122.125 72.3833 123.406 70.7375 123.406C69.6125 123.406 68.6958 122.792 67.9875 121.562C67.5083 120.708 67.2688 119.688 67.2688 118.5C67.2688 114.708 68.9354 109.521 72.2688 102.938C75.5188 96.5833 79.7583 90.3958 84.9875 84.375C87.1542 81.875 88.6646 80.625 89.5188 80.625C89.7896 80.625 90.0604 80.7396 90.3313 80.9688C90.7063 81.2812 90.8938 81.6667 90.8938 82.125C90.8938 82.7292 90.3938 83.5312 89.3938 84.5312C89.1646 84.7604 87.5396 86.6458 84.5188 90.1875C80.6438 94.7292 77.2375 100.021 74.3 106.062C73.05 108.646 72.0708 111.156 71.3625 113.594C70.8625 115.26 70.6125 116.583 70.6125 117.562C70.6125 117.979 70.7063 118.354 70.8938 118.688C71.1438 119.083 71.4875 119.281 71.925 119.281C72.7375 119.281 73.9042 118.417 75.425 116.688C79.2583 112.292 85.5188 104.406 94.2063 93.0312C96.3938 90.1562 98.8625 87.1562 101.613 84.0312C102.363 83.1771 102.956 82.5625 103.394 82.1875C103.831 81.7917 104.342 81.5938 104.925 81.5938C105.321 81.5938 105.665 81.75 105.956 82.0625C106.227 82.3333 106.363 82.6458 106.363 83C106.363 83.5208 105.894 84.4792 104.956 85.875C100.206 93 96.4771 99.7812 93.7688 106.219C91.0813 112.594 89.675 117.323 89.55 120.406C89.5083 121.51 89.4354 122.188 89.3313 122.438C89.1646 122.812 88.8625 123 88.425 123C87.7792 123 87.2271 122.719 86.7688 122.156C86.4354 121.719 86.2688 121.198 86.2688 120.594C86.2688 119.198 86.6333 117.115 87.3625 114.344C88.2583 110.906 89.7167 107.094 91.7375 102.906C91.8625 102.677 93.1333 100.281 95.55 95.7188ZM128.075 80.7188C128.408 80.7188 128.731 80.8958 129.044 81.25C129.315 81.5625 129.45 81.9062 129.45 82.2812C129.45 82.8021 129.169 83.5104 128.606 84.4062C128.335 84.8438 127.315 86.2917 125.544 88.75C117.252 100.167 111.919 110.469 109.544 119.656C109.273 121.135 108.71 121.875 107.856 121.875C107.398 121.875 106.992 121.656 106.638 121.219C106.304 120.823 106.138 120.375 106.138 119.875C106.138 118.833 106.638 116.906 107.638 114.094C109.929 107.594 114.033 99.8229 119.95 90.7812C122.367 87.0729 124.335 84.2917 125.856 82.4375C126.835 81.2917 127.575 80.7188 128.075 80.7188ZM148.475 85C147.392 86.2083 145.954 88.2083 144.162 91C142.35 93.8333 141.048 96.0208 140.256 97.5625C144.756 96.6667 147.871 96.2188 149.6 96.2188C150.433 96.2188 151.069 96.3021 151.506 96.4688C152.006 96.6354 152.256 97.0208 152.256 97.625C152.256 98.9167 151.527 99.5625 150.069 99.5625C149.985 99.5625 149.819 99.5625 149.569 99.5625C148.944 99.5417 148.485 99.5312 148.194 99.5312C146.131 99.5312 142.704 100.208 137.912 101.562C134.871 106.792 132.194 113.042 129.881 120.312C129.569 121.417 129.079 121.969 128.412 121.969C127.829 121.969 127.34 121.646 126.944 121C126.631 120.521 126.475 120.042 126.475 119.562C126.475 119.021 127.048 117.188 128.194 114.062C130.09 108.917 132.798 103.396 136.319 97.5C138.548 93.8125 140.996 89.9062 143.662 85.7812C142.954 85.6771 142.6 85.2812 142.6 84.5938C142.6 83.5729 143.59 82.7917 145.569 82.25C148.319 81.4792 150.996 80.8854 153.6 80.4688C156.558 79.9896 158.808 79.75 160.35 79.75C162.787 79.75 164.006 80.3646 164.006 81.5938C164.006 82.2188 163.725 82.7292 163.162 83.125C162.933 83.2917 162.673 83.375 162.381 83.375C162.131 83.375 161.777 83.3438 161.319 83.2812C160.61 83.1771 159.996 83.125 159.475 83.125C158.35 83.125 156.454 83.3438 153.787 83.7812C151.871 84.0729 150.1 84.4792 148.475 85Z" fill="#070B45"/>
<path d="M10 145L204 145" stroke="url(#paint0_radial_333_109)" stroke-width="10" stroke-linecap="round"/>
<defs>
<radialGradient id="paint0_radial_333_109" cx="0" cy="0" r="1" gradientUnits="userSpaceOnUse" gradientTransform="translate(107 145.5) rotate(90) scale(0.5 97)">
<stop stop-color="#070B45"/>
<stop offset="1" stop-opacity="0"/>
</radialGradient>
</defs>
</svg>
